<?xml version="1.0" encoding="UTF-8"?>
<svg id="Layer_1" data-name="Layer 1" xmlns="http://www.w3.org/2000/svg" viewBox="0 0 95.32 60.56">
  <defs>
    <style>
      .cls-1 {
        fill: #081b44;
      }

      .cls-1, .cls-2, .cls-3, .cls-4, .cls-5, .cls-6, .cls-7, .cls-8, .cls-9, .cls-10, .cls-11, .cls-12, .cls-13, .cls-14, .cls-15, .cls-16, .cls-17, .cls-18, .cls-19, .cls-20, .cls-21, .cls-22, .cls-23 {
        stroke-width: 0px;
      }

      .cls-2 {
        fill: #081f4a;
      }

      .cls-3 {
        fill: #061c45;
      }

      .cls-4 {
        fill: #051c48;
      }

      .cls-5 {
        fill: #9babc9;
      }

      .cls-6 {
        fill: #081e48;
      }

      .cls-7 {
        fill: #071c48;
      }

      .cls-8 {
        fill: #091d49;
      }

      .cls-9 {
        fill: #061d48;
      }

      .cls-10 {
        fill: #061c48;
      }

      .cls-11 {
        fill: #071c46;
      }

      .cls-12 {
        fill: #081e46;
      }

      .cls-13 {
        fill: #071d49;
      }

      .cls-14 {
        fill: #0a1f48;
      }

      .cls-15 {
        fill: #0a1e47;
      }

      .cls-16 {
        fill: #061c49;
      }

      .cls-17 {
        fill: #091d4a;
      }

      .cls-18 {
        fill: #071c47;
      }

      .cls-19 {
        fill: #081c48;
      }

      .cls-20 {
        fill: #071d48;
      }

      .cls-21 {
        fill: #061d49;
      }

      .cls-22 {
        fill: #0a1d49;
      }

      .cls-23 {
        fill: #071d47;
      }
    </style>
  </defs>
  <path class="cls-16" d="M82.02,60.64c-.06-.11.02-.2.06-.29.2-.49.4-.97.62-1.45.07-.16.07-.29,0-.44-.37-.83-.72-1.66-1.1-2.49-.09-.21-.06-.26.17-.26.54,0,.54,0,.75.49.21.5.42,1.01.65,1.56.27-.63.51-1.2.76-1.78.09-.22.57-.38.77-.25.12.08,0,.17-.02.24-.4.95-.8,1.9-1.2,2.85-.26.61-.52,1.21-.77,1.82h-.68Z"/>
  <path class="cls-5" d="M95.22,52.21s-.05,0-.07,0c-.09-.1-.09-.23-.09-.35,0-.55,0-1.09,0-1.64,0-.13,0-.27.11-.37.02,0,.04,0,.05,0v2.36Z"/>
  <path class="cls-16" d="M36.48,57.91c-.61.69-1.28,1.16-2.1,1.32-1.67.33-3.24.16-4.48-1.18-.65-.7-.9-1.58-1.03-2.51-.05-.35-.06-.7-.06-1.05,0-2.29,0-4.59,0-6.88,0-.23.05-.31.3-.31.68.02,1.36.03,2.05,0,.3-.01.34.1.34.36,0,2.09,0,4.17,0,6.26,0,.53.05,1.05.22,1.56.28.83.88,1.28,1.74,1.38,1.69.2,2.86-.77,3-2.48.02-.25.03-.49.03-.74,0-2.01,0-4.03,0-6.04,0-.2.03-.29.26-.28.72.02,1.45.01,2.17,0,.19,0,.27.03.27.25,0,3.8,0,7.6,0,11.41,0,.22-.06.28-.27.28-.72-.01-1.45-.01-2.17,0-.19,0-.26-.04-.25-.24.01-.34,0-.67,0-1.08Z"/>
  <path class="cls-16" d="M21.02,48.52c.48-.44.94-.78,1.47-1.01.82-.36,1.67-.42,2.55-.3.17.02.22.1.21.26,0,.69-.01,1.38,0,2.08,0,.21-.06.23-.25.2-.47-.08-.94-.1-1.42-.03-1.59.24-2.56,1.34-2.56,2.95,0,2.08,0,4.15,0,6.23,0,.26-.04.35-.33.34-.7-.03-1.4-.01-2.11,0-.18,0-.25-.03-.25-.23,0-3.82,0-7.64,0-11.46,0-.17.04-.23.22-.23.75,0,1.51,0,2.26,0,.17,0,.21.06.2.21-.01.31,0,.62,0,1Z"/>
  <path class="cls-4" d="M47.23,53.24c0-1.85,0-3.7,0-5.55,0-.34.1-.44.41-.38.05,0,.1,0,.15,0,.17-.02.23.05.22.22,0,.74,0,1.49,0,2.23,0,3.04,0,6.07,0,9.11,0,.12.07.3-.06.34-.21.05-.45.06-.67,0-.09-.03-.04-.17-.04-.26,0-1.9,0-3.8,0-5.7Z"/>
  <path class="cls-20" d="M54.86,56.19c0-.54,0-1.07,0-1.61,0-.2.05-.26.26-.26.54,0,.54,0,.54.53,0,.92,0,1.84,0,2.76,0,.69.49,1.06,1.16.87.38-.1.58-.38.58-.84,0-.99.01-1.98,0-2.97,0-.28.07-.4.36-.35.09.01.19,0,.28,0,.11,0,.17.03.17.15-.02,1.16.07,2.31-.04,3.47-.08.87-.8,1.38-1.78,1.33-.85-.04-1.48-.66-1.51-1.51-.01-.53,0-1.05,0-1.58h0Z"/>
  <path class="cls-1" d="M87.76,49.77c.18-.26.37-.51.53-.79.13-.23.3-.31.55-.28.15.02.31,0,.55,0-.22.31-.39.58-.59.83-.13.16-.13.28-.02.46.41.66.79,1.33,1.19,1.99.1.17.13.22-.12.24-.47.05-.77-.08-.97-.53-.16-.38-.41-.71-.62-1.07-.08-.14-.11-.14-.23-.02-.36.37-.38.83-.34,1.29.03.26-.07.33-.33.32-.46-.02-.46,0-.46-.48,0-1.1,0-2.21,0-3.31,0-.21,0-.41,0-.62,0-.16-.08-.41.04-.46.18-.08.42-.04.64-.03.16,0,.1.15.1.24,0,.66,0,1.32,0,1.98,0,.07,0,.14,0,.21.02,0,.05.01.07.02Z"/>
  <path class="cls-20" d="M60.29,49.07c.3-.27.57-.4.9-.41.87-.02,1.37.42,1.41,1.29.03.69,0,1.38.01,2.08,0,.15-.05.19-.2.19-.59.02-.59.03-.59-.58,0-.52.01-1.03-.02-1.55-.03-.49-.32-.72-.8-.68-.42.03-.68.31-.69.8-.01.58-.01,1.16,0,1.74,0,.22-.07.28-.28.28-.52,0-.52,0-.52-.5,0-.91,0-1.82,0-2.73,0-.25.07-.34.31-.3.05,0,.1,0,.15,0,.23-.03.39.01.31.38Z"/>
  <path class="cls-20" d="M82.41,51.85c-.42.35-.81.46-1.25.39-.62-.1-1.02-.48-1.06-1.11-.04-.75-.02-1.51-.03-2.26,0-.14.06-.17.18-.18.6-.05.6-.05.6.54,0,.48,0,.97,0,1.45.02.56.27.83.74.83.45,0,.75-.3.77-.83.02-.57.02-1.14,0-1.7,0-.23.05-.33.29-.29.05,0,.1,0,.15,0,.26-.04.35.05.35.33-.02.96-.01,1.92,0,2.88,0,.23-.05.35-.3.31-.05,0-.1,0-.15,0-.2,0-.43.05-.3-.37Z"/>
  <path class="cls-19" d="M95.17,49.85c0,.79-.01,1.57-.02,2.36q-.75.04-.75-.71c0-.42,0-.85,0-1.27,0-.55-.26-.82-.75-.82-.47,0-.76.29-.77.82-.01.57-.01,1.13,0,1.7,0,.23-.05.3-.29.29-.49-.02-.5,0-.5-.48,0-.92,0-1.84,0-2.75,0-.24.07-.32.3-.29.05,0,.1,0,.15,0,.21-.02.41-.03.32.35.55-.44,1.09-.5,1.65-.25.44.2.61.59.66,1.05Z"/>
  <path class="cls-6" d="M59.76,56.07c.72-.53,1.59-.49,2.02.05.2.25.28.55.29.87,0,.67,0,1.34,0,2.01,0,.17-.03.23-.22.24-.56,0-.56.02-.56-.54,0-.48,0-.95,0-1.43,0-.58-.26-.85-.75-.84-.47,0-.75.32-.75.87,0,.56,0,1.12,0,1.67,0,.19-.03.27-.25.27-.53,0-.53,0-.53-.54,0-.89.01-1.78,0-2.66,0-.27.08-.35.33-.31.05,0,.1,0,.15,0,.22-.03.36.03.29.35Z"/>
  <path class="cls-9" d="M79.29,57.42c0-.25,0-.5,0-.74,0-.16-.04-.24-.21-.21-.02,0-.04,0-.06,0-.14-.02-.35.07-.4-.05-.07-.18-.05-.41-.02-.61.02-.15.19-.09.29-.08.31.04.46-.06.4-.4-.01-.08,0-.16,0-.25,0-.52,0-.51.53-.51.21,0,.27.06.26.26-.01.24,0,.47,0,.71,0,.13.05.18.18.18.22,0,.43,0,.65,0,.18-.01.23.06.22.23-.02.62.08.51-.49.51-.56,0-.56,0-.56.57,0,.34,0,.68,0,1.02,0,.18.05.34.24.43.19.09.37.06.51-.08.11-.12.19-.09.28,0,.12.13.39.21.36.38-.04.22-.29.33-.5.41-.85.33-1.65-.19-1.68-1.1,0-.23,0-.45,0-.68h0Z"/>
  <path class="cls-13" d="M74.47,58.07c.15-.02.29,0,.39.22.13.29.61.33.84.11.2-.19.16-.49-.08-.63-.17-.1-.37-.12-.56-.17-.5-.13-.78-.43-.81-.86-.04-.43.18-.78.58-.97.42-.19.97-.1,1.27.21.1.1.13.17,0,.27-.09.07-.17.15-.25.23-.08.09-.15.12-.25,0-.09-.1-.23-.14-.37-.1-.11.03-.21.09-.23.22-.02.14.05.22.17.26.21.07.42.12.62.18.54.16.82.5.82,1.02,0,.55-.31.98-.83,1.13-.71.21-1.4-.06-1.66-.65-.19-.43-.15-.5.34-.5Z"/>
  <path class="cls-16" d="M65.85,58.11c.26-.73.5-1.38.71-2.05.08-.26.2-.38.47-.33.04,0,.08,0,.12,0q.37,0,.24.36c-.35.97-.73,1.93-1.06,2.9-.11.32-.33.23-.54.25-.2.02-.35,0-.44-.25-.34-.99-.71-1.98-1.08-2.96-.08-.2-.11-.31.19-.3.55.02.55,0,.74.53.21.6.42,1.2.65,1.86Z"/>
  <path class="cls-10" d="M84.23,51.05c.13,0,.28-.02.38.22.12.29.59.34.83.12.23-.21.16-.55-.15-.67-.2-.08-.42-.11-.62-.18-.46-.16-.69-.48-.68-.92,0-.42.26-.75.69-.89.43-.15.96-.01,1.2.28.08.1.06.16-.02.23-.09.08-.19.16-.27.25-.08.08-.14.1-.22,0-.09-.1-.21-.14-.34-.12-.13.02-.24.08-.27.22-.03.14.05.24.18.28.21.06.42.11.62.18.52.15.78.47.8.97.02.54-.25.96-.72,1.15-.74.29-1.54,0-1.77-.66-.15-.41-.12-.46.37-.46Z"/>
  <path class="cls-16" d="M26.22,59.37c-.66,0-1.17-.52-1.16-1.19,0-.65.51-1.17,1.15-1.17.65,0,1.18.52,1.18,1.18,0,.66-.51,1.18-1.17,1.18Z"/>
  <path class="cls-16" d="M42.3,59.37c-.65,0-1.18-.52-1.18-1.17,0-.65.52-1.18,1.17-1.19.65,0,1.17.52,1.17,1.18,0,.66-.51,1.18-1.16,1.18Z"/>
  <path class="cls-16" d="M16.37,58.19c0,.67-.51,1.18-1.17,1.18-.66,0-1.16-.52-1.16-1.19,0-.65.52-1.16,1.16-1.17.65,0,1.17.52,1.17,1.18Z"/>
  <path class="cls-12" d="M72.71,56.04c.28-.22.55-.33.86-.35.13,0,.2.02.19.16,0,.07,0,.15,0,.22.03.25-.03.38-.32.42-.49.07-.7.32-.72.82-.02.56-.01,1.11,0,1.67,0,.18-.02.27-.24.27-.54,0-.54,0-.54-.53,0-.9.01-1.79,0-2.69,0-.26.08-.33.31-.3.06,0,.12,0,.19,0,.2-.01.38-.01.28.31Z"/>
  <path class="cls-23" d="M67.95,49.77c0,.72,0,1.45,0,2.17,0,.23-.05.3-.29.29-.49-.02-.49,0-.49-.49,0-1.37,0-2.75,0-4.12,0-.26.07-.33.32-.32.46.02.46,0,.46.48,0,.66,0,1.32,0,1.98Z"/>
  <path class="cls-22" d="M77.24,57.47c0-.49,0-.99,0-1.48,0-.19.03-.27.25-.27.53,0,.53,0,.54.53,0,.9,0,1.79,0,2.69,0,.21-.03.31-.28.3-.5-.02-.5,0-.5-.51,0-.42,0-.84,0-1.27Z"/>
  <path class="cls-3" d="M91.27,50.47c0,.5,0,1.01,0,1.51,0,.19-.05.24-.24.24-.53,0-.53,0-.53-.53,0-.9,0-1.79,0-2.69,0-.24.06-.34.3-.3.07.01.14,0,.22,0,.2-.03.27.04.26.25-.02.5,0,1.01,0,1.51Z"/>
  <path class="cls-11" d="M68.8,50.45c0-.48,0-.97,0-1.45,0-.22.03-.31.28-.3.5.02.5,0,.5.51,0,.91,0,1.81,0,2.72,0,.22-.04.3-.29.3-.49-.02-.49,0-.49-.51,0-.42,0-.85,0-1.27Z"/>
  <path class="cls-17" d="M63.62,57.45c0,.51,0,1.01,0,1.52,0,.2-.04.27-.26.27-.53,0-.53,0-.53-.51,0-.91,0-1.82,0-2.73,0-.21.04-.29.27-.28.52.01.52,0,.52.53,0,.4,0,.81,0,1.21Z"/>
  <path class="cls-8" d="M91.4,47.73c0,.31-.21.53-.51.53-.3,0-.52-.22-.52-.52,0-.3.22-.53.52-.53.3,0,.52.22.52.53Z"/>
  <path class="cls-15" d="M69.19,48.24c-.28,0-.5-.23-.5-.51,0-.29.22-.51.5-.51.28,0,.5.23.49.52,0,.3-.21.51-.5.51Z"/>
  <path class="cls-2" d="M77.61,54.25c.3,0,.51.2.52.49,0,.29-.2.51-.49.52-.28,0-.51-.21-.52-.49,0-.29.21-.51.49-.52Z"/>
  <path class="cls-14" d="M63.24,55.26c-.29,0-.51-.21-.51-.5,0-.29.21-.51.5-.51.29,0,.5.2.51.5,0,.29-.21.51-.5.51Z"/>
  <path class="cls-16" d="M11.77,47.31c-.71.02-1.43.01-2.14,0-.21,0-.27.06-.26.26.02.29,0,.58,0,.95-.22-.26-.4-.4-.6-.53-.21-.13-.42-.26-.65-.36-2.84-1.3-6.42.15-7.63,3.06-.25.61-.36,1.26-.5,1.9v1.36c.06.06.05.13.06.2.32,2.75,2.28,4.78,5.01,5.16,1.43.2,2.78-.03,3.95-.94.11-.08.21-.18.35-.3,0,.35.01.63,0,.92-.01.2.07.24.25.24.58-.01,1.16,0,1.73,0q.72,0,.72-.72c0-3.62,0-7.25,0-10.87,0-.25-.05-.33-.32-.33ZM6.06,56.84c-1.94,0-3.47-1.6-3.47-3.61,0-1.95,1.56-3.52,3.49-3.52,1.9,0,3.4,1.57,3.41,3.55,0,1.99-1.52,3.58-3.42,3.57Z"/>
  <path class="cls-10" d="M58.4,1.93c-.17-.1-.26-.09-.35.09-.18.35-.39.68-.58,1.02-.08.14-.15.16-.29.1-.31-.14-.64-.23-.98-.27-.2-.02-.26-.09-.26-.29,0-.17.04-.27.2-.37.68-.41.79-1.31.24-1.85-.2-.2-.46-.26-.7-.36h-.25c-.26.09-.52.17-.72.38-.51.53-.42,1.42.21,1.8.25.14.27.31.23.53-.03.23-.25.12-.38.17-.27.09-.56.15-.83.25-.16.06-.24.05-.32-.1-.13-.26-.29-.5-.43-.75-.28-.49-.27-.48-.77-.19-.15.09-.18.15-.09.3.34.57.67,1.14.99,1.71.07.13.13.17.28.08,1.28-.77,2.58-.78,3.86-.01.18.11.24.05.32-.1.26-.47.53-.93.8-1.39.28-.48.28-.47-.19-.75ZM55.55,1.6c-.21.01-.39-.19-.38-.4,0-.22.2-.4.41-.37.22.03.34.17.36.4-.03.23-.16.36-.38.37Z"/>
  <path class="cls-10" d="M65.4,7.4c-.64-.12-1.27-.26-1.91-.42-2.2-.54-4.32-1.33-6.44-2.09-1.29-.46-2.53-.34-3.73.34-1.74.98-3.61,1.32-5.59,1-.53-.09-.52-.08-.53.46,0,.21.06.29.27.31.53.07,1.06.15,1.6.15.9,0,1.79-.12,2.7-.39-.95,1.98-.58,3.38.22,4.73,1.16,1.97,2.28,3.95,3.43,5.92.21.36.32.74.28,1.15-.12,1.26-1.54,2.19-2.86,1.31-.44-.29-.83-.64-1.23-.99-1-.88-2.08-1.64-3.41-1.94-2.6-.58-4.86.08-6.74,1.93-3.92,3.85-7.81,7.73-11.71,11.6-.05.05-.13.08-.09.19,1.84.28,3.7.48,5.6.66-.73,1.56-1.43,3.08-2.15,4.62.07,0,.09.01.11,0,4.77-.86,9.33-2.36,13.69-4.49.31-.15.31-.15.31.19,0,1.43,0,2.85,0,4.28,0,2.74,0,5.47,0,8.21,0,.1-.05.25.04.29.21.08.45.06.67.02.14-.03.07-.22.07-.33,0-4.31,0-8.61,0-12.92,0-.2.05-.31.24-.41.6-.31,1.19-.62,1.76-.97,2.06-1.23,3.23-3.05,3.49-5.44.06-.54.04-.54.6-.55.1,0,.21,0,.31-.02,3.97-.43,6.13-4.72,4.13-8.18-1.2-2.07-2.39-4.15-3.59-6.22-.07-.13-.14-.25-.15-.4-.03-.52.29-.83.91-.83,3.21,0,6.43,0,9.64,0,.12,0,.34.07.3-.18-.04-.21.19-.53-.24-.61ZM51.68,20.54c.11,0,.19.03.24.14.33.61.57,1.26.71,1.94.04.2,0,.26-.21.19-.46-.17-.89-.4-1.27-.7-.43-.35-.85-.71-1.32-1.1.6-.34,1.2-.47,1.84-.46ZM51.26,19.76c-.72.06-1.35.26-1.93.61-.15.09-.22.01-.32-.06-1.29-.97-2.73-1.47-4.34-1.5-.74-.01-1.46.08-2.19.3,2.01-2.03,6.3-2.35,8.79.65ZM31.27,30.11c2.8-2.76,5.55-5.48,8.3-8.19.02.01.03.02.05.03-.31.66-.61,1.32-.92,1.99-.98,2.11-1.96,4.23-2.94,6.34-.05.11-.07.26-.26.25-1.39-.07-2.77-.23-4.22-.42ZM34.48,34.91c.2-.43.37-.79.53-1.15.33-.72.67-1.44,1-2.16.07-.16.16-.23.35-.22,2.19.1,4.38.07,6.56-.12,1.08-.09,2.16-.2,3.23-.34-3.71,1.8-7.58,3.12-11.67,3.99ZM47.21,24.12c.02,1.83,0,3.66,0,5.48,0,.24-.05.33-.31.37-3.09.5-6.19.72-9.32.66-.35,0-.7,0-1.12,0,.58-1.26,1.12-2.43,1.67-3.59.97-2.09,1.95-4.19,2.92-6.28.07-.15.16-.25.3-.33,2.38-1.21,4.68-1.1,6.93.35.2.13.22.22.05.41-.76.82-1.14,1.79-1.13,2.93ZM48.38,29.67q-.38.12-.38-.27c0-.89,0-1.78,0-2.86.03-.83-.06-1.87.04-2.9.08-.76.42-1.41.94-1.98.13-.14.22-.17.37-.03.43.38.88.76,1.32,1.12.54.43,1.14.74,1.81.91.15.04.25.07.25.27-.09,2.62-1.85,4.96-4.36,5.74ZM57.81,15.97c1.75,2.92-.1,6.5-3.2,7.01-.03,0-.06.02-.09.02-.31.03-.65.14-.92.01-.28-.14-.16-.53-.24-.8-.13-.45-.25-.89-.44-1.31.06-.07.1-.02.15-.01,1.06.32,2.18-.01,2.85-.85.68-.85.78-1.99.22-2.96-.94-1.64-1.89-3.27-2.83-4.91-.69-1.19-.41-2.69.69-3.45-.07.54.15.94.39,1.35,1.14,1.96,2.25,3.94,3.42,5.89ZM55.57,7.4c-.27,0-.53.03-.8.09-1.28.31-2.12,1.15-2.56,2.56-.15-.27-.17-.55-.19-.82-.21-2.46,2.19-4.42,4.54-3.66,1.77.58,3.51,1.26,5.29,1.83-2.1,0-4.19,0-6.29,0Z"/>
  <path class="cls-10" d="M65.95,51.24c-.13-.12-.1-.18,0-.29.19-.21.3-.47.31-.76,0-.43,0-.87,0-1.3,0-.08.02-.18-.1-.19-.2,0-.44-.08-.58.02-.18.13-.29.04-.43,0-.54-.18-1.19.03-1.52.49-.36.49-.39,1.19-.04,1.65.15.19.2.3-.03.44-.04.02-.08.11-.07.12.15.17.3.35.48.48.15.1.18-.12.26-.18.36-.29.94-.26,1.23.09.29.35.22.95-.14,1.23-.37.28-1,.22-1.21-.17-.15-.27-.32-.3-.57-.28-.12.01-.25,0-.37,0,.1.71.61,1.23,1.32,1.34.74.11,1.46-.23,1.76-.82.32-.65.21-1.37-.33-1.86ZM64.83,50.77c-.39,0-.68-.28-.68-.68,0-.39.26-.67.65-.68.4,0,.68.27.68.67,0,.38-.28.68-.65.69Z"/>
  <path class="cls-7" d="M78.53,50.35c-.1-.19-.1-.26.12-.34.67-.26.97-.88.82-1.64-.12-.63-.65-1.04-1.35-1.05-.47,0-.95,0-1.42,0-.2,0-.26.05-.26.26.01.73,0,1.47,0,2.2,0,.64,0,1.28,0,1.92,0,.55,0,.53.53.54.22,0,.28-.07.27-.28-.01-.52,0-1.03,0-1.55,0-.1-.07-.24.11-.27.15-.03.22.05.28.18.22.46.45.91.67,1.36.29.58.29.57.94.57.22,0,.25-.04.15-.24-.29-.54-.57-1.1-.87-1.64ZM78.24,49.34c-.29.03-.58.01-.86.02-.11,0-.14-.06-.13-.16,0-.16,0-.33,0-.49q0-.65.8-.65c.52,0,.8.4.64.9-.07.22-.23.36-.44.38Z"/>
  <path class="cls-10" d="M58.86,51.81c-.49-1.33-.99-2.67-1.48-4-.18-.5-.19-.49-.73-.5-.2,0-.29.06-.35.24-.3.85-.62,1.7-.94,2.55-.23.63-.46,1.26-.7,1.88-.08.21-.03.24.17.24.59,0,.59,0,.78-.56.02-.07.05-.14.07-.21.04-.18.14-.24.33-.24.39.02.78,0,1.18,0,.63,0,.64,0,.84.59.09.28.2.5.5.4.49,0,.48,0,.33-.41ZM56.21,50.48c-.18,0-.14-.09-.11-.19.22-.6.43-1.2.65-1.79.02,0,.05,0,.07,0,.05.13.1.26.15.4.19.52.37,1.04.57,1.59-.47,0-.9,0-1.33,0Z"/>
  <path class="cls-18" d="M73.81,49.13c0-.5.05-.42-.43-.43-.2,0-.45-.07-.35.33-.82-.62-1.82-.36-2.31.17-.58.63-.62,1.74-.09,2.41.56.7,1.45.83,2.39.32-.05.28.1.32.31.29.07,0,.15,0,.22,0,.22.03.28-.06.28-.27-.01-.94,0-1.88,0-2.82ZM72.04,51.5c-.55,0-1.01-.47-1.01-1.04,0-.58.44-1.04,1-1.04.56,0,1,.45,1.01,1.04,0,.58-.44,1.04-1,1.04Z"/>
  <path class="cls-21" d="M68.75,57.76c.73.02,1.47,0,2.2,0,.25,0,.3-.09.29-.3-.03-.72-.34-1.28-.99-1.59-.65-.31-1.29-.26-1.87.17-.61.46-.79,1.09-.67,1.82.13.75.78,1.33,1.53,1.41.86.09,1.61-.31,1.93-1.07-.42.06-.8-.07-1.18.2-.45.32-1.13.1-1.4-.37-.11-.19-.13-.28.16-.27ZM69.36,56.42c.44-.04.78.17.99.62h-1.78c.09-.35.39-.59.78-.62Z"/>
</svg>