<svg version="1.1" id="British_Council_logo" xmlns="http://www.w3.org/2000/svg" xmlns:xlink="http://www.w3.org/1999/xlink" x="0px" y="0px" viewBox="0 0 145.3 42" style="enable-background:new 0 0 145.3 42;" xml:space="preserve">
 <style type="text/css">
  .st0{fill:#1E0259;}
 </style>
 <g>
  <path class="st0" d="M50.8,19.4V2h6.4c1,0,2.1,0.1,3,0.5c1.5,0.7,2.5,2.2,2.6,3.9c0.1,1.5-0.7,2.9-2.1,3.6l0,0c2,0.3,3.3,2.1,3.2,4
		c0,2.3-1.6,4.3-3.8,4.9c-1.1,0.3-2.2,0.4-3.3,0.4L50.8,19.4 M58.6,4.9c-0.5-0.2-1.1-0.3-1.6-0.3h-3.2v4.5h3c0.7,0,1.4-0.1,2-0.4
		c1-0.7,1.3-2.1,0.7-3.1C59.2,5.4,58.9,5.1,58.6,4.9 M59.5,12.1c-0.6-0.2-1.3-0.3-2-0.3h-3.8v4.8h3.6c0.8,0,1.5-0.1,2.2-0.4
		c0.8-0.4,1.3-1.2,1.3-2.2C60.8,13.3,60.3,12.5,59.5,12.1L59.5,12.1z">
  </path>
  <rect x="81.3" y="2" class="st0" width="3" height="17.4">
  </rect>
  <rect x="103" y="2" class="st0" width="3" height="17.4">
  </rect>
  <path class="st0" d="M115.6,1.8c1.7,0,3.3,0.3,4.8,1v2.9c-1.5-0.8-3.2-1.2-4.9-1.2c-1.6,0-3,0.5-3,1.9c0,3.6,9,2.1,9,8
		c0,3.2-2.7,5.4-6.7,5.4c-2.1,0-4.1-0.5-5.9-1.6l1.2-2.4c1.4,0.9,3.1,1.3,4.7,1.3c1.8,0,3.5-0.7,3.5-2.3c0-3.7-8.9-2.1-8.9-8
		C109.4,3.6,111.9,1.8,115.6,1.8z">
  </path>
  <polygon class="st0" points="135.6,19.4 135.6,11.9 127.1,11.9 127.1,19.4 124.1,19.4 124.1,2 127.1,2 127.1,9.1 135.6,9.1 
		135.6,2 138.5,2 138.5,19.4 	">
  </polygon>
  <path class="st0" d="M57.4,22.5c1.7,0,3.3,0.3,4.8,1L61.3,26c-1.1-0.6-2.4-0.9-3.6-0.9c-3.3,0-5.4,2.8-5.4,6.2s1.9,6.2,5.4,6.2
		c1.3,0,2.5-0.3,3.6-0.9l0.9,2.5c-1.5,0.7-3.2,1-4.8,1c-5.2,0-8.2-3.6-8.2-8.9C49.2,26.5,52.2,22.5,57.4,22.5z">
  </path>
  <path class="st0" d="M122.7,22.5c1.7,0,3.3,0.3,4.8,1l-0.9,2.5c-1.1-0.6-2.4-0.9-3.6-0.9c-3.3,0-5.4,2.8-5.4,6.2s1.9,6.2,5.4,6.2
		c1.3,0,2.5-0.3,3.6-0.9l0.9,2.5c-1.5,0.7-3.2,1-4.8,1c-5.2,0-8.2-3.6-8.2-8.9C114.5,26.5,117.5,22.5,122.7,22.5z">
  </path>
  <path class="st0" d="M79.3,31.3c0,5.2-3.3,9-8.2,9s-8.2-3.6-8.2-8.8s3.3-9,8.2-9S79.3,26.1,79.3,31.3 M76.1,31.3
		c0-3.8-2.2-6.2-5.1-6.2s-5.1,2.5-5.1,6.3s2.2,6.2,5.1,6.2C74,37.6,76.1,35.2,76.1,31.3L76.1,31.3z">
  </path>
  <path class="st0" d="M81.3,33.5V22.6h3v11c0,2.9,1.6,4,4,4s4-1.1,4-4v-11h3v10.9c0,4.7-2.7,6.8-7.1,6.8S81.3,38.2,81.3,33.5z">
  </path>
  <path class="st0" d="M100.9,27.4L100.9,27.4c0,0.6,0.1,1.5,0.1,2.3V40h-3V22.6h3.2l8,11.9l0,0c0-0.6-0.1-1.5-0.1-2.3v-9.5h3V40
		h-2.7L100.9,27.4z">
  </path>
  <rect x="129.8" y="22.6" class="st0" width="3" height="17.4">
  </rect>
  <polygon class="st0" points="135.6,40 135.6,22.6 138.5,22.6 138.5,37.3 145.3,37.3 145.3,40 	">
  </polygon>
  <polygon class="st0" points="100.7,2 86.6,2 86.6,4.7 92.1,4.7 92.1,19.4 95.1,19.4 95.1,4.7 100.7,4.7 	">
  </polygon>
  <path class="st0" d="M75.9,19.4c-2.5-5.3-3.2-6.7-4.3-6.7h-2.8v6.7h-3V2h5.9C76.3,2,78,4.3,78,7c0.1,2.1-1.2,3.9-3.2,4.5l0,0
		c0.8,0.4,1.6,2.1,4.5,7.9L75.9,19.4z M72,4.6h-3.1v5.3h3C74,9.9,75,8.8,75,7.2S74.1,4.7,72,4.6L72,4.6z">
  </path>
  <circle class="st0" cx="32" cy="10" r="10">
  </circle>
  <circle class="st0" cx="10" cy="10" r="10">
  </circle>
  <circle class="st0" cx="32" cy="32" r="10">
  </circle>
  <circle class="st0" cx="10" cy="32" r="10">
  </circle>
 </g>
</svg>