<?xml version="1.0" encoding="UTF-8"?>
<svg id="Layer_1" data-name="Layer 1" xmlns="http://www.w3.org/2000/svg" viewBox="0 0 394.09 368.37">
  <defs>
    <style>
      .cls-1 {
        fill: #010101;
      }

      .cls-1, .cls-2 {
        stroke-width: 0px;
      }
    </style>
  </defs>
  <path class="cls-1" d="M394.09,187.32c-1.98,3.36-3,7.18-5.71,10.22-7.82,8.77-21.34,10.19-30.55,2.92-1.71-1.35-3.28-2.88-4.82-4.43-48.17-48.31-96.33-96.64-144.5-144.96-8.12-8.14-14.9-8.11-23.09.1-48.44,48.59-96.88,97.19-145.32,145.78-8.91,8.94-19.04,10.71-28.9,5.11-11.48-6.51-14.78-22.17-6.85-32.75,1.3-1.74,2.79-3.37,4.32-4.91C57.09,115.79,105.53,67.19,153.98,18.61c24.77-24.84,61.36-24.8,86.17.08,13.07,13.1,26.13,26.2,39.16,39.34.86.87,1.4,2.06,2.08,3.1.38-.26.75-.51,1.13-.77,0-7.4-.09-14.8.02-22.2.16-10.62,6.14-19.16,15.36-22.2,15.25-5.04,29.78,5.96,29.87,22.81.12,21.36.07,42.73-.03,64.09-.01,2.64.68,4.5,2.57,6.38,17.4,17.31,34.64,34.78,52.05,52.06,5.13,5.09,9.92,10.26,11.72,17.52v8.5Z"/>
  <path class="cls-2" d="M339.46,280.58c0,15.19.04,30.38,0,45.56-.07,24.08-17.27,41.82-41.16,42.1-20.52.23-41.05-.02-61.58.13-2.86.02-2.96-1.19-2.96-3.39.05-31.02-.03-62.04.12-93.06.02-3.57-.61-4.76-4.49-4.72-21.81.22-43.62.16-65.42.04-2.98-.02-3.84.7-3.83,3.79.12,31.02,0,62.04.17,93.06.02,3.67-1.09,4.31-4.44,4.28-20.91-.19-41.83.21-62.73-.29-20.98-.5-38.35-18.48-38.49-39.5-.22-32.18-.05-64.36-.11-96.53,0-4.21,1.96-7.25,4.79-10.09,22.98-22.99,45.92-46.03,68.87-69.05,19.69-19.75,39.37-39.5,59.06-59.24,6.95-6.97,12.51-6.99,19.41-.07,42.55,42.68,85.08,85.38,127.69,128,3.62,3.62,5.23,7.53,5.16,12.67-.21,15.44-.07,30.89-.07,46.34Z"/>
</svg>