<?xml version="1.0" encoding="UTF-8"?>
<svg id="Layer_1" data-name="Layer 1" xmlns="http://www.w3.org/2000/svg" viewBox="0 0 176.31 73.38">
  <defs>
    <style>
      .cls-1 {
        fill: #fefefe;
      }

      .cls-1, .cls-2, .cls-3, .cls-4, .cls-5 {
        stroke-width: 0px;
      }

      .cls-2 {
        fill: #02acd4;
      }

      .cls-3 {
        fill: #00acd4;
      }

      .cls-4 {
        fill: #01acd4;
      }

      .cls-5 {
        fill: #2c2a7d;
      }
    </style>
  </defs>
  <path class="cls-5" d="M92.17,41.13c0-1.52,0-3.04,0-4.57,0-.12,0-.25.02-.37,0-.02.03-.05.06-.06.04-.01.08-.01.12-.01.74,0,1.48,0,2.22,0,.12,0,.2.05.28.14.43.57.86,1.14,1.29,1.71.43.57.86,1.14,1.29,1.7.06.08.12.15.18.22.02.03.09.02.11,0,.08-.1.16-.19.23-.29.77-1.01,1.55-2.03,2.32-3.04.11-.14.22-.28.34-.41.18-.05.35-.02.53-.02.56,0,1.12,0,1.69,0,.08,0,.16,0,.25.01.05,0,.08.04.09.08.01.08.01.16.01.25,0,.63,0,1.26,0,1.89,0,2.46,0,4.91,0,7.37,0,.12,0,.25,0,.37,0,.04-.06.1-.11.11-.03,0-.05,0-.08,0-.63,0-1.26,0-1.89,0-.03,0-.06,0-.08-.02-.03-.02-.08-.05-.08-.08-.01-.11-.01-.22-.01-.33,0-1,0-2,0-3,0-1,0-2,0-3,0-.12,0-.25-.01-.37,0,0-.01-.02-.02-.03-.03-.02-.05-.02-.07,0-.08.09-.16.18-.24.28-.83,1.04-1.65,2.08-2.48,3.13-.03.04-.08.08-.1.13-.11.2-.29.23-.49.2-.06,0-.1-.03-.14-.08-.07-.09-.14-.17-.2-.26-.82-1.07-1.63-2.14-2.45-3.21-.07-.09-.14-.17-.21-.25,0,0-.02-.01-.04,0-.03,0-.05.02-.05.05,0,.12,0,.25,0,.37,0,1.99,0,3.98,0,5.97,0,.14,0,.27-.01.41,0,.03-.03.07-.08.08-.05,0-.11.01-.16.01-.58,0-1.15,0-1.73,0-.05,0-.11,0-.16-.01-.05,0-.08-.04-.08-.08,0-.12-.01-.25-.01-.37,0-1.54,0-3.07,0-4.61Z"/>
  <path class="cls-5" d="M153.49,41.14c0-1.51,0-3.02,0-4.53,0-.14,0-.27.01-.41,0-.05.04-.07.07-.09.04-.01.08-.01.12-.01.51,0,1.02,0,1.52,0,.16,0,.25.06.34.18.4.52.81,1.04,1.21,1.56,1.13,1.45,2.25,2.9,3.38,4.36.08.1.16.19.24.28.01.01.05,0,.07,0,0,0,.01-.02.01-.04-.02-.56-.05-1.12-.07-1.68-.02-.55-.05-1.1-.06-1.64,0-.89,0-1.78,0-2.67,0-.08,0-.17.01-.25,0-.03.04-.07.08-.08.04-.02.08-.01.12-.01.62,0,1.23,0,1.85,0,.03,0,.05,0,.08,0,.05,0,.11.05.11.1,0,.15.01.3.01.45,0,1.22,0,2.44,0,3.66,0,1.82,0,3.65,0,5.47,0,.4.01.38-.38.38-.48,0-.96,0-1.44,0-.09,0-.16-.03-.21-.11-.3-.39-.61-.78-.91-1.17-1.23-1.58-2.46-3.16-3.69-4.74-.07-.09-.14-.17-.21-.25-.01-.01-.05-.01-.07-.01,0,0-.02.02-.02.02,0,.12,0,.25,0,.37.07,1.85.07,3.7.07,5.55,0,.08,0,.17-.01.25,0,.03-.05.07-.08.08-.04.02-.08.01-.12.01-.62,0-1.23,0-1.85,0-.04,0-.09,0-.12-.01-.03-.01-.07-.04-.07-.09,0-.14,0-.27,0-.41,0-1.51,0-3.02,0-4.53Z"/>
  <path class="cls-5" d="M81.95,56.28c0-1.49,0-2.99,0-4.48,0-.11,0-.22,0-.33,0-.18.03-.2.23-.2.52,0,1.04,0,1.56,0,.11,0,.18.04.24.12.3.39.61.78.91,1.17,1.24,1.6,2.49,3.21,3.73,4.81.08.1.16.19.24.28,0,0,.02,0,.04,0,.04,0,.05-.02.05-.05,0-.03,0-.05,0-.08-.03-.71-.07-1.42-.11-2.14-.01-.26-.03-.52-.03-.78,0-1,0-2,0-3,0-.08,0-.17.01-.25,0-.03.05-.06.08-.08.04-.02.08-.01.12-.01.62,0,1.23,0,1.85,0,.04,0,.08,0,.12.02.05,0,.07.05.08.08,0,.12.01.25.01.37,0,2.84,0,5.68,0,8.52,0,.32,0,.63,0,.95,0,.07-.06.14-.12.14-.07,0-.14,0-.21,0-.48,0-.96,0-1.44,0-.12,0-.21-.04-.28-.13-.27-.35-.54-.69-.81-1.04-1.27-1.64-2.54-3.27-3.81-4.91-.06-.07-.13-.14-.19-.21,0,0-.03,0-.04,0-.01,0-.03,0-.03.02,0,.1,0,.19,0,.29.02.93.05,1.86.07,2.8.01.96,0,1.92,0,2.88,0,.08,0,.16-.02.24,0,.02-.03.04-.06.05-.02.01-.05.01-.08.01-.64,0-1.29,0-1.93,0-.03,0-.05,0-.08,0-.05,0-.09-.06-.1-.11,0-.12,0-.25,0-.37,0-1.52,0-3.04,0-4.57Z"/>
  <path class="cls-5" d="M111.67,56.29c0-1.55,0-3.1,0-4.65,0-.4-.03-.38.38-.38,2.24,0,4.47,0,6.71,0,.41,0,.38-.02.38.37,0,.47,0,.93,0,1.4,0,.07,0,.14-.02.2,0,.05-.05.07-.08.08-.11.01-.22.01-.33.01-1.43,0-2.85,0-4.28,0-.63,0-.54-.08-.55.54,0,.38,0,.77,0,1.15,0,.05,0,.11.02.16,0,.02.03.05.06.06.12.01.25.02.37.02,1.34,0,2.69,0,4.03,0,.12,0,.25,0,.37.01.06,0,.11.05.11.1,0,.01,0,.03,0,.04,0,.56,0,1.12,0,1.69,0,.01,0,.03,0,.04,0,.05-.06.1-.11.1-.12,0-.25,0-.37.01-1.34,0-2.69,0-4.03,0-.12,0-.25,0-.37.02-.02,0-.04.03-.06.06-.01.02-.01.05-.01.08,0,.58,0,1.15,0,1.73,0,.07.05.12.13.13.04,0,.08,0,.12,0,.11,0,.22,0,.33,0,1.47,0,2.93,0,4.4,0,.11,0,.22,0,.33,0,.09,0,.14.06.14.16,0,.59,0,1.18,0,1.77,0,.03,0,.05-.02.08-.01.02-.04.05-.06.05-.08.01-.16.02-.24.02-2.34,0-4.69,0-7.03,0-.08,0-.16,0-.25-.02-.02,0-.05-.04-.05-.06,0-.1-.01-.19-.01-.29,0-.9,0-1.81,0-2.71,0-.66,0-1.32,0-1.97h0Z"/>
  <path class="cls-5" d="M130.93,41.12c0-1.52,0-3.04,0-4.57,0-.12,0-.25.02-.37,0-.02.03-.04.05-.06.02-.01.05-.01.08-.01.12,0,.25,0,.37,0,2.15,0,4.31,0,6.46,0,.11,0,.22,0,.33,0,.11,0,.17.03.17.18,0,.56,0,1.12,0,1.69,0,.03,0,.05,0,.08,0,.06-.05.11-.1.11-.12,0-.25,0-.37,0-1.44,0-2.88,0-4.32,0-.12,0-.25,0-.37,0-.05,0-.1.05-.1.11,0,.05,0,.11,0,.16,0,.45,0,.91,0,1.36,0,.05,0,.11,0,.16,0,.04.06.11.1.11.12,0,.25,0,.37,0,1.32,0,2.63,0,3.95,0,.12,0,.25,0,.37,0,.12,0,.17.05.17.18,0,.53,0,1.07,0,1.6,0,.04,0,.08-.02.12,0,.02-.03.05-.05.05-.11.01-.22.02-.33.02-1.33,0-2.66,0-3.99,0-.11,0-.22,0-.33,0-.22,0-.25.05-.25.27,0,.26,0,.52,0,.78,0,.25,0,.49,0,.74,0,.05.01.11.03.16,0,.02.03.05.05.05.12.01.25.02.37.02,1.51,0,3.02,0,4.53,0,.12,0,.25,0,.37,0,.08,0,.12.05.13.13,0,.21,0,.41,0,.62,0,.38,0,.77,0,1.15,0,.15-.07.16-.18.17-.04,0-.08,0-.12,0-.05,0-.11,0-.16,0-2.25,0-4.5,0-6.75,0-.52,0-.47.05-.47-.45,0-1.54,0-3.07,0-4.61Z"/>
  <path class="cls-5" d="M89.01,46.18c-.36,0-.71,0-1.07,0-.09,0-.16-.04-.19-.12-.17-.4-.34-.81-.51-1.21-.04-.1-.09-.2-.14-.3-.03-.05-.07-.08-.13-.08-.07,0-.14,0-.21,0-1.51,0-3.02,0-4.53,0-.07,0-.14,0-.21,0-.08,0-.13.04-.16.11-.07.16-.15.32-.22.49-.14.33-.28.65-.42.98-.04.11-.12.14-.22.14-.01,0-.03,0-.04,0-.67,0-1.34,0-2.02,0-.04,0-.08,0-.12-.02-.02,0-.04-.04-.04-.06.04-.12.08-.23.13-.34.64-1.44,1.29-2.88,1.93-4.31.74-1.65,1.48-3.3,2.22-4.95.04-.1.09-.2.14-.3.03-.06.08-.08.13-.08.05,0,.11,0,.16,0,.64,0,1.29,0,1.93,0,.05,0,.11,0,.16,0,.06,0,.11.02.13.08.04.07.07.15.11.22,1.41,3.14,2.82,6.27,4.23,9.41.04.09.07.18.1.27,0,.02-.02.06-.03.06-.05.01-.11.02-.16.02-.33,0-.66,0-.99,0h0Z"/>
  <path class="cls-5" d="M73.28,46.51c-.84.01-1.62-.13-2.36-.42-.42-.17-.82-.39-1.18-.67-.26-.2-.49-.44-.69-.71-.2-.28-.21-.24.04-.5.29-.31.59-.61.88-.92.06-.06.12-.11.18-.17.03-.03.09-.03.11,0,.05.05.1.1.15.14.53.55,1.17.89,1.91,1.08.51.13,1.03.14,1.55.08.27-.03.54-.11.78-.24.14-.07.26-.15.37-.26.41-.38.35-1.01.07-1.35-.13-.16-.3-.28-.49-.36-.28-.12-.57-.2-.87-.24-.29-.04-.57-.06-.86-.1-.61-.07-1.22-.18-1.8-.4-.28-.11-.55-.24-.8-.42-.37-.27-.65-.63-.81-1.06-.21-.58-.24-1.18-.12-1.78.13-.66.5-1.18,1.03-1.59.39-.31.84-.52,1.32-.66.71-.2,1.42-.28,2.16-.2.4.04.79.08,1.17.19.77.22,1.41.66,1.94,1.26.05.05.04.12-.02.18-.27.24-.53.47-.8.71-.14.13-.29.25-.43.38-.05.04-.1.04-.15,0-.38-.34-.82-.54-1.31-.66-.54-.13-1.08-.17-1.63-.05-.22.05-.42.12-.61.24-.07.04-.14.09-.2.15-.3.27-.38.61-.25,1.01.07.2.21.35.39.46.15.09.32.15.49.2.35.09.7.14,1.05.17.41.03.82.09,1.22.17.42.09.82.22,1.2.41.21.11.41.23.59.38.43.35.73.78.89,1.31.16.55.19,1.11.08,1.67-.13.69-.49,1.24-1.04,1.67-.38.3-.82.5-1.28.65-.62.2-1.26.28-1.87.27Z"/>
  <path class="cls-5" d="M137.68,50.89c.57.02.98.04,1.39.13.92.19,1.68.64,2.3,1.34.05.06.05.12-.02.18-.05.05-.1.09-.15.14-.32.28-.64.56-.96.84-.04.04-.08.07-.13.1-.05.04-.1.04-.15,0-.13-.1-.26-.2-.4-.29-.34-.21-.72-.34-1.11-.41-.15-.03-.3-.05-.45-.07-.44-.04-.88,0-1.3.15-.18.06-.35.16-.5.29-.49.42-.38,1.17.14,1.47.16.09.32.16.49.2.35.09.7.14,1.05.17.51.04,1.01.11,1.5.24.36.1.7.22,1.03.4.21.11.4.24.58.39.42.37.71.83.84,1.38.12.5.14,1.01.04,1.51-.13.7-.51,1.27-1.07,1.7-.38.29-.79.48-1.24.63-.78.25-1.58.31-2.4.26-.73-.04-1.44-.22-2.1-.52-.52-.24-.98-.55-1.36-.97-.06-.07-.13-.14-.19-.22-.26-.36-.28-.31.04-.63.23-.24.45-.48.68-.71.09-.09.17-.18.26-.27.1-.11.14-.11.23-.01.04.04.07.08.11.12.52.54,1.15.87,1.87,1.06.5.13,1,.15,1.51.09.25-.03.49-.09.71-.19.1-.04.2-.09.29-.16.44-.3.56-.66.44-1.18-.06-.25-.22-.44-.44-.57-.25-.16-.52-.25-.8-.3-.39-.08-.79-.11-1.18-.15-.56-.06-1.11-.17-1.64-.35-.23-.08-.46-.18-.67-.31-.67-.39-1.06-.97-1.19-1.73-.06-.37-.07-.73-.02-1.1.12-.76.51-1.35,1.12-1.8.31-.23.65-.4,1.02-.53.64-.23,1.31-.3,1.82-.31Z"/>
  <path class="cls-5" d="M78.7,54.51c0,.75,0,1.51,0,2.26,0,.45-.01.9-.1,1.35-.09.46-.22.9-.44,1.32-.4.77-.99,1.34-1.78,1.7-.5.23-1.03.36-1.58.41-.4.03-.79.04-1.19,0-.64-.05-1.24-.21-1.81-.5-.98-.49-1.64-1.27-2-2.3-.16-.44-.25-.9-.27-1.37,0-.18-.02-.36-.02-.53,0-1.73,0-3.45,0-5.18,0-.07,0-.14,0-.21,0-.18.03-.21.22-.21.6,0,1.21,0,1.81,0,.04,0,.09,0,.12.02.03.02.07.05.08.08.01.12.01.25.01.37,0,1.66,0,3.32,0,4.98,0,.19,0,.38.01.58.02.36.11.7.26,1.03.29.63.79,1.01,1.46,1.16.43.1.87.12,1.31.03.68-.14,1.17-.52,1.43-1.17.14-.35.21-.71.23-1.08.01-.19,0-.38,0-.58,0-1.66,0-3.32,0-4.98,0-.12,0-.25.02-.37,0-.02.03-.04.06-.05.02-.01.05-.01.08-.01.64,0,1.29,0,1.93,0,.03,0,.06,0,.08.02.02.01.05.04.05.06.01.11.02.22.02.33,0,.95,0,1.89,0,2.84Z"/>
  <path class="cls-5" d="M100.23,51.26c.32,0,.63,0,.95,0,.32,0,.29,0,.39.26.2.51.39,1.02.59,1.54.66,1.74,1.33,3.48,1.99,5.22.03.09.08.17.12.26,0,.01.02.01.03.02.03.02.05.01.06-.02.22-.58.44-1.15.66-1.73.66-1.73,1.32-3.46,1.98-5.18.03-.09.07-.18.11-.27.02-.06.07-.08.13-.09.05,0,.11,0,.16,0,.66,0,1.32,0,1.97,0,.07,0,.14,0,.2.01.03,0,.06.06.05.09-.04.12-.09.23-.14.34-.24.58-.48,1.16-.72,1.75-1.03,2.48-2.05,4.96-3.08,7.44-.24.58-.09.48-.73.49-.45,0-.9,0-1.36,0-.1,0-.19,0-.29,0-.12,0-.17-.06-.21-.15-.02-.05-.04-.1-.06-.15-1.31-3.16-2.63-6.33-3.94-9.49-.03-.08-.06-.15-.09-.23-.01-.04.02-.09.05-.09.07,0,.14-.01.2-.01.33,0,.66,0,.99,0Z"/>
  <path class="cls-5" d="M47.36,17.65s-.06.1-.09.14c-.37.49-.74.99-1.11,1.48-3.18,4.23-6.37,8.46-9.55,12.68-.97,1.28-1.93,2.56-2.9,3.84-.05.07-.1.13-.15.19-.03.04-.1.05-.15.01-.33-.24-.67-.48-1-.72-.06-.05-.07-.11-.03-.18.02-.03.05-.07.07-.1.12-.17.24-.34.35-.51,2.74-3.91,5.48-7.81,8.22-11.72,1.42-2.02,2.83-4.04,4.25-6.06.07-.1.14-.2.22-.3.06-.08.12-.09.21-.02.53.39,1.07.77,1.6,1.16.03.02.04.06.07.1Z"/>
  <path class="cls-3" d="M31.66,47.43s.07.04.08.07c.04.09.07.18.1.27.15.47.31.94.46,1.41.38,1.16.75,2.32,1.13,3.48.69,2.12,1.38,4.25,2.07,6.37.69,2.11,1.37,4.22,2.06,6.33.69,2.11,1.37,4.22,2.06,6.33.09.27.18.55.27.82.02.05.03.11.04.16.01.05-.03.12-.07.13-.16.05-.31.11-.47.16-.22.07-.44.14-.67.21-.1.03-.16,0-.19-.09-.07-.22-.15-.44-.22-.66-.53-1.63-1.06-3.26-1.59-4.89-.76-2.33-1.52-4.67-2.27-7-.68-2.09-1.35-4.17-2.03-6.26-.65-2.01-1.31-4.01-1.96-6.02-.03-.09-.06-.18-.08-.28-.03-.09,0-.15.11-.19.38-.12.76-.25,1.13-.37.01,0,.03,0,.05,0Z"/>
  <path class="cls-5" d="M57.67,49.37c-.23.71-.44,1.33-.64,1.96-.02.08-.08.1-.16.07-.04-.01-.08-.03-.12-.04-.63-.22-1.27-.44-1.9-.66-1.97-.68-3.94-1.36-5.91-2.05-3.56-1.23-7.12-2.47-10.68-3.7-.1-.04-.21-.07-.31-.11-.07-.03-.1-.09-.07-.17.12-.38.25-.76.37-1.13.03-.1.09-.12.19-.09.38.11.76.23,1.14.34,3.15.96,6.29,1.91,9.44,2.87,2.79.85,5.59,1.7,8.38,2.55.07.02.13.04.19.07.06.02.08.07.06.13,0,.01,0,.03.02-.04Z"/>
  <path class="cls-5" d="M27.97,60.89c.04-2,.08-4,.11-6.01.02-1.26.05-2.52.07-3.78,0-.07,0-.14,0-.21,0-.07.06-.14.12-.14.41,0,.82,0,1.23,0,.06,0,.11.05.11.1.01.37.03.74.04,1.11.02,1.07.04,2.14.06,3.21.03,1.41.05,2.82.08,4.24.03,1.49.06,2.99.09,4.48.02,1.28.05,2.55.07,3.83.02.93.04,1.86.06,2.8,0,.12,0,.25,0,.37,0,.08-.05.12-.13.12-.22,0-.44,0-.66,0-.44,0-.88,0-1.32,0-.08,0-.13-.05-.13-.12,0-.03,0-.05,0-.08,0-.05,0-.11,0-.16.02-.96.03-1.92.05-2.88.03-1.4.05-2.8.08-4.2.02-.89.04-1.78.06-2.67,0,0,0,0,0,0Z"/>
  <path class="cls-5" d="M163.06,59.31c0-.51,0-1.01,0-1.52,0-.54.05-.36-.23-.8-.76-1.18-1.52-2.35-2.28-3.52-.39-.61-.79-1.22-1.18-1.83-.05-.08-.1-.16-.14-.25-.03-.05.02-.11.07-.12.03,0,.05,0,.08,0,.75,0,1.51,0,2.26,0,.13,0,.2.06.26.16.47.79.95,1.57,1.42,2.36.28.46.56.91.84,1.37.02.04.08.04.11.01.02-.02.04-.04.05-.06.05-.08.1-.16.16-.24.68-1.06,1.36-2.13,2.03-3.19.05-.08.11-.16.15-.24.06-.11.14-.15.27-.15.74,0,1.48,0,2.22,0,.04,0,.08.01.12.02.03,0,.06.07.05.1-.04.07-.07.15-.11.22-.35.52-.71,1.05-1.06,1.57-.88,1.31-1.77,2.61-2.65,3.92-.04.06-.08.11-.11.17-.04.07-.07.15-.07.23,0,.11,0,.22,0,.33,0,1.04,0,2.08,0,3.13,0,.11,0,.22-.02.33,0,.02-.03.05-.06.06-.04.01-.08.01-.12.01-.62,0-1.23,0-1.85,0-.04,0-.08,0-.12-.01-.04,0-.07-.05-.08-.08,0-.1,0-.19,0-.29,0-.55,0-1.1,0-1.65h0Z"/>
  <path class="cls-3" d="M1.28,62.11s-.06-.01-.08-.03c-.04-.04-.08-.08-.11-.12-.21-.29-.42-.58-.63-.87-.08-.1-.07-.15.05-.24.32-.24.64-.47.96-.7,2.28-1.65,4.55-3.3,6.83-4.96,3.62-2.63,7.24-5.25,10.85-7.88.42-.31.84-.61,1.26-.92.07-.05.13-.1.21-.14.03-.01.08,0,.11,0,.01,0,.02.02.03.03.24.33.48.66.73,1,.04.05.03.11-.02.14-.09.07-.17.14-.26.2-1.5,1.09-3,2.17-4.5,3.26-1.66,1.21-3.33,2.42-4.99,3.63-3.05,2.22-6.1,4.43-9.16,6.65-.38.27-.75.55-1.13.82-.06.04-.11.08-.17.11Z"/>
  <path class="cls-5" d="M153.77,51.26c1.22,0,2.44,0,3.66,0,.12,0,.25,0,.37,0,.05,0,.1.05.1.11,0,.01,0,.03,0,.04,0,.56,0,1.12,0,1.69,0,.01,0,.03,0,.04,0,.06-.05.11-.1.11-.12,0-.25,0-.37,0-.7,0-1.4,0-2.1,0-.1,0-.19,0-.29,0-.16,0-.2.04-.2.18,0,.12,0,.25,0,.37,0,2.33,0,4.66,0,6.99,0,.14,0,.27,0,.41,0,.05-.05.1-.1.1-.04,0-.08,0-.12,0-.59,0-1.18,0-1.77,0-.05,0-.11,0-.16-.02-.02,0-.05-.04-.05-.06,0-.14-.02-.27-.02-.41,0-2.36,0-4.72,0-7.08,0-.57.06-.51-.5-.52-.71,0-1.43,0-2.14,0-.11,0-.22,0-.33-.01-.03,0-.06-.04-.09-.07-.01-.02-.01-.05-.01-.08,0-.56,0-1.12,0-1.69,0-.03,0-.06.02-.08.01-.02.04-.05.06-.05.11-.01.22-.02.33-.02,1.28,0,2.55,0,3.83,0Z"/>
  <path class="cls-3" d="M27.14,39.02s-.03.07-.05.1c-.22.31-.45.62-.68.93-.06.08-.12.09-.21.03-.45-.32-.89-.64-1.33-.96-3.91-2.84-7.83-5.69-11.74-8.53-1.51-1.1-3.02-2.19-4.52-3.29-.42-.3-.4-.24-.1-.65.15-.21.3-.42.46-.63.03-.04.07-.08.12-.11.02-.01.06-.02.08-.01.06.03.12.07.17.11,1.73,1.26,3.46,2.51,5.19,3.77,2.41,1.75,4.81,3.5,7.22,5.24,1.75,1.27,3.5,2.55,5.26,3.82.04.03.09.07.12.11.02.02.02.05.03.08Z"/>
  <path class="cls-5" d="M27.97,19.43c-.04-1.63-.07-3.26-.11-4.89-.02-.96-.05-1.92-.07-2.88,0-.1,0-.19,0-.29,0-.05.05-.1.11-.1.01,0,.03,0,.04,0,.64,0,1.29,0,1.93,0,.03,0,.06,0,.08.01.02.01.05.03.06.05.01.05.02.11.02.16-.01.66-.03,1.32-.04,1.97-.02.78-.03,1.56-.05,2.34-.03,1.4-.07,2.8-.1,4.19-.02,1-.05,2-.07,3-.03,1.27-.06,2.55-.09,3.82,0,.25-.02.49-.04.74,0,.05-.06.1-.11.1-.41,0-.82,0-1.23,0-.06,0-.12-.07-.13-.14,0-.16-.01-.33-.02-.49-.04-1.88-.08-3.76-.12-5.63-.02-.66-.04-1.32-.06-1.97,0,0,0,0,0,0Z"/>
  <path class="cls-3" d="M32.4,28c.02-.07.06-.19.1-.3.61-1.86,1.21-3.73,1.82-5.59.93-2.87,1.86-5.74,2.8-8.6.35-1.08.7-2.16,1.06-3.24.03-.09.07-.18.11-.26,0-.02.05-.03.07-.03.03,0,.05,0,.08,0,.36.12.73.24,1.09.36.12.04.14.09.1.22-.17.53-.35,1.07-.52,1.6-.86,2.66-1.73,5.32-2.59,7.98-.68,2.09-1.36,4.17-2.03,6.26-.2.61-.4,1.23-.59,1.84-.03.1-.07.21-.12.31-.02.04-.06.05-.1.05-.03,0-.05-.01-.08-.02-.37-.12-.73-.24-1.1-.35-.08-.02-.11-.09-.08-.21Z"/>
  <path class="cls-2" d="M49.66,40.4c2.84,0,5.68,0,8.52,0,.14,0,.27,0,.41,0,.13,0,.18.04.19.16,0,.38,0,.77,0,1.15,0,.03,0,.06-.02.08-.01.02-.03.05-.06.06-.04.01-.08.02-.12.02-.15,0-.3,0-.45,0-5.69,0-11.39,0-17.08,0-.12,0-.25,0-.37,0-.16,0-.2-.04-.2-.19,0-.19,0-.38,0-.58,0-.19,0-.38,0-.58,0-.08.05-.13.13-.13.14,0,.27,0,.41,0,2.88,0,5.76,0,8.64,0Z"/>
  <path class="cls-3" d="M59.4,19.85s-.02.05-.04.07c-.06.05-.13.1-.19.15-1.57,1.14-3.15,2.29-4.73,3.43-2,1.45-3.99,2.9-5.99,4.35-.98.71-1.95,1.42-2.93,2.13-.08.06-.16.11-.24.15-.02.01-.05,0-.08-.01-.02-.01-.04-.03-.06-.06-.24-.32-.47-.64-.7-.96-.05-.06-.04-.13.02-.18.03-.03.06-.05.1-.07.29-.21.58-.42.86-.63,2.57-1.87,5.15-3.74,7.72-5.61,1.71-1.24,3.42-2.48,5.13-3.72.32-.23.28-.27.53.08.19.27.38.53.58.8.01.02.02.05.02.08Z"/>
  <path class="cls-5" d="M.19,32.79c.09-.29.21-.66.33-1.02.09-.27.18-.55.27-.82.03-.08.08-.1.16-.08.04.01.08.03.12.04.43.15.85.3,1.28.45,2.58.92,5.16,1.85,7.74,2.77.98.35,1.96.7,2.94,1.05.06.02.13.05.19.07.1.04.13.1.11.19-.01.04-.02.08-.03.12-.1.31-.21.62-.31.94-.01.04-.03.08-.04.11-.02.05-.09.08-.14.06-.39-.11-.79-.23-1.18-.34-2.75-.81-5.49-1.61-8.24-2.42-.96-.28-1.92-.56-2.88-.84-.09-.03-.18-.06-.27-.09-.05-.02-.08-.08-.04-.21Z"/>
  <path class="cls-5" d="M13.65,45.32s.08.04.09.07c.14.4.27.81.4,1.21.02.05-.02.11-.07.13-.37.14-.75.27-1.12.41-3.06,1.1-6.11,2.2-9.17,3.3-.37.13-.75.27-1.12.4-.11.04-.17,0-.22-.11-.07-.21-.14-.42-.2-.63-.12-.35-.23-.7-.35-1.05-.02-.08-.04-.16-.05-.24,0-.02.02-.06.04-.07.09-.04.18-.07.27-.1,1.13-.33,2.26-.66,3.4-.99,1.57-.45,3.13-.91,4.7-1.36,1.05-.31,2.11-.61,3.16-.92.08-.02.16-.04.24-.06Z"/>
  <path class="cls-5" d="M94.61,56.29c0-1.5,0-2.99,0-4.49,0-.1,0-.19,0-.29,0-.24.04-.26.26-.26.58,0,1.15,0,1.73,0,.05,0,.11,0,.16.01.05,0,.08.04.08.08.01.11.01.22.01.33,0,1.06,0,2.11,0,3.17,0,2,0,4.01,0,6.01,0,.12,0,.25,0,.37,0,.05-.06.1-.11.11-.03,0-.05,0-.08,0-.62,0-1.23,0-1.85,0-.03,0-.05,0-.08,0-.04,0-.11-.07-.11-.11,0-.12,0-.25,0-.37,0-1.52,0-3.04,0-4.57Z"/>
  <path class="cls-5" d="M17.92,24.18s.07.02.08.04c.07.09.13.18.19.27,1.5,2.21,3,4.42,4.5,6.63.63.93,1.26,1.86,1.89,2.79.05.08.1.16.15.24,0,.02,0,.06-.01.07-.04.04-.08.08-.12.11-.28.2-.55.4-.83.6-.17.13-.18.13-.32-.06-.23-.29-.45-.58-.68-.88-2.11-2.72-4.22-5.43-6.33-8.15-.1-.13-.23-.23-.26-.4.09-.12.23-.19.35-.28.43-.32.86-.63,1.3-.94.03-.02.07-.03.1-.05Z"/>
  <path class="cls-5" d="M16.21,60.44s-.05-.02-.08-.03c-.53-.39-1.07-.77-1.6-1.16-.01,0-.02-.02-.03-.03-.04-.04-.06-.1-.03-.15.06-.08.11-.15.17-.23,2.31-2.97,4.61-5.93,6.92-8.9.05-.06.1-.13.15-.19.03-.04.1-.05.15-.01.34.25.69.5,1.03.75.03.02.05.06.03.11-.02.04-.04.07-.06.11-.05.07-.09.14-.14.2-2.08,3.08-4.17,6.15-6.25,9.23-.06.09-.13.18-.19.27-.01.02-.04.02-.07.03Z"/>
  <path class="cls-5" d="M147.02,56.33c0,1.52,0,3.04,0,4.57,0,.12,0,.25-.02.37,0,.02-.03.05-.05.06-.02.01-.05.02-.08.02-.64,0-1.29,0-1.93,0-.03,0-.06,0-.08-.01-.02-.01-.05-.03-.05-.05-.01-.11-.02-.22-.02-.33,0-3.09,0-6.17,0-9.26,0-.46-.04-.42.42-.42.49,0,.99,0,1.48,0,.08,0,.17,0,.25.01.03,0,.08.05.08.08.01.12.01.25.01.37,0,1.54,0,3.07,0,4.61Z"/>
  <path class="cls-3" d="M26.6,31.67s-.02.06-.04.08c-.02.02-.04.03-.07.04-.38.12-.76.25-1.13.37-.07.02-.14-.02-.17-.08-.05-.14-.1-.29-.14-.43-.66-2.03-1.32-4.07-1.98-6.1-.71-2.19-1.42-4.38-2.13-6.57-.08-.25-.16-.49-.24-.74-.02-.05-.03-.11-.04-.16-.01-.04.03-.12.08-.13.39-.13.78-.25,1.17-.37.05-.01.12.02.14.07.06.15.11.31.16.47.39,1.19.77,2.37,1.16,3.56.83,2.57,1.67,5.13,2.5,7.7.22.68.44,1.36.66,2.03.03.09.06.18.08.27Z"/>
  <path class="cls-5" d="M43.41,59.2s-.01.05-.03.07c-.03.03-.06.06-.09.08-.5.36-1,.73-1.5,1.09-.03.02-.07.04-.11.06-.02.01-.09,0-.11-.03-.08-.11-.16-.22-.24-.33-1.32-1.95-2.64-3.9-3.96-5.86-.71-1.04-1.41-2.09-2.12-3.13-.05-.08-.1-.16-.15-.24,0-.02,0-.06.01-.08.02-.03.05-.06.09-.09.3-.22.6-.44.9-.65.13-.09.16-.08.27.05.51.65,1.01,1.3,1.52,1.95,1.73,2.22,3.45,4.43,5.18,6.65.1.13.2.26.3.39.02.02.03.05.04.07Z"/>
  <path class="cls-2" d="M12.04,41.88c-2.22,0-4.44,0-6.66,0-.14,0-.27,0-.41,0-.08,0-.14-.05-.14-.12,0-.41,0-.82,0-1.23,0-.05.05-.11.1-.11.11,0,.22,0,.33,0,.64,0,1.29,0,1.93,0,3.84,0,7.68,0,11.52,0,.15,0,.3,0,.45,0,.06,0,.12.06.13.14,0,.27,0,.55,0,.82,0,.12,0,.25,0,.37,0,.07-.06.13-.13.13-.15,0-.3,0-.45,0-2.22,0-4.44,0-6.66,0Z"/>
  <path class="cls-3" d="M28.73,44.06c-.1.32-.23.7-.35,1.08-.55,1.71-1.11,3.41-1.66,5.12-.58,1.8-1.17,3.59-1.75,5.39-.04.12-.08.23-.12.35-.03.07-.08.1-.16.07-.38-.12-.76-.24-1.13-.37-.07-.02-.11-.09-.09-.16.03-.11.06-.21.1-.31.77-2.36,1.53-4.71,2.3-7.07.46-1.41.91-2.81,1.37-4.22.03-.1.07-.21.1-.31.06-.18.12-.17.24-.13.29.09.57.19.86.28.08.03.16.05.23.08.08.03.11.08.08.21Z"/>
  <path class="cls-5" d="M36.81,39.34s-.08-.04-.09-.07c-.05-.11-.08-.23-.12-.35-.09-.27-.18-.55-.27-.82-.03-.1,0-.15.1-.19.46-.17.92-.34,1.39-.51,2.52-.93,5.04-1.86,7.56-2.78.09-.03.18-.06.27-.1.05-.02.1,0,.13.07.02.04.03.07.05.11.19.57.37,1.15.56,1.72.01.04.02.08.03.12,0,.04-.02.08-.06.1-.05.02-.1.04-.15.06-2.77.78-5.54,1.56-8.31,2.34-.3.09-.61.17-.91.26-.05.01-.11.02-.17.04Z"/>
  <path class="cls-4" d="M40.34,48.57s.05,0,.08.02c.06.04.11.08.17.12,1.58,1.14,3.15,2.29,4.72,3.43,1.3.94,2.6,1.88,3.89,2.83.1.07.2.15.29.23.03.03.04.07.01.11-.25.34-.5.69-.75,1.03-.03.04-.1.05-.15.02-.09-.06-.18-.12-.27-.19-2.87-2.09-5.75-4.17-8.62-6.26-.06-.04-.11-.08-.16-.12-.05-.04-.06-.12-.02-.18.23-.32.47-.64.7-.97.02-.02.04-.04.06-.05.01,0,.03,0,.04,0Z"/>
  <path class="cls-3" d="M19.98,66.22s.03-.11.06-.18c.77-2.38,1.55-4.76,2.32-7.15.03-.08.06-.15.09-.23.02-.05.09-.07.14-.06.01,0,.03,0,.04,0,.34.11.68.22,1.01.33.05.02.11.04.15.07.03.02.05.08.04.11-.06.2-.12.39-.18.59-.63,1.94-1.26,3.88-1.89,5.82-.12.36-.24.73-.36,1.09-.02.05-.04.1-.06.15-.01.02-.04.03-.07.04-.01,0-.03,0-.04,0-.39-.13-.78-.25-1.17-.38-.07-.02-.11-.09-.08-.21Z"/>
  <path class="cls-4" d="M41.89,30.86s.03,0,.04.02c.26.35.52.71.77,1.06.03.04,0,.08-.03.11-.11.09-.21.17-.32.25-1.65,1.2-3.31,2.4-4.96,3.6-.04.03-.09.07-.13.1-.11.07-.15.07-.23-.05-.11-.14-.21-.29-.32-.43-.12-.17-.24-.33-.36-.5-.06-.08-.05-.14.04-.21.4-.29.8-.58,1.19-.87,1.33-.97,2.66-1.93,3.99-2.9.08-.06.16-.11.24-.16.02-.01.05,0,.08-.01Z"/>
  <path class="cls-4" d="M42.67,1.13s-.01.09-.02.13c-.12.37-.23.73-.35,1.1-.52,1.62-1.05,3.23-1.58,4.85-.02.06-.05.13-.08.19-.02.04-.06.06-.1.05-.09-.02-.19-.05-.28-.08-.31-.1-.62-.21-.94-.31-.05-.02-.08-.09-.07-.14.05-.16.1-.31.15-.47.6-1.85,1.2-3.7,1.8-5.55.02-.06.05-.13.08-.19.01-.02.04-.03.07-.04.01,0,.03,0,.04,0,.39.13.78.25,1.17.38.03.01.06.05.09.07Z"/>
  <path class="cls-4" d="M34.21,44.1s.08.03.11.06c.26.18.51.37.77.55.82.6,1.64,1.19,2.46,1.79.06.04.11.08.16.13.06.05.07.11.02.18-.24.33-.48.66-.73,1-.03.04-.11.05-.15.02-.24-.18-.49-.35-.73-.53-.84-.61-1.69-1.22-2.53-1.84-.08-.06-.15-.12-.22-.18-.02-.01-.01-.05-.01-.07,0-.01,0-.03.02-.04.24-.33.48-.67.73-1,.02-.03.07-.04.1-.06Z"/>
  <path class="cls-5" d="M128.07,39.56c-.31-1.21-.97-2.17-2.03-2.84-.62-.4-1.3-.63-2.03-.76-.5-.09-1.01-.1-1.52-.09-.54.02-1.06.1-1.58.25-.73.22-1.4.56-1.96,1.08-.73.67-1.19,1.5-1.42,2.46-.22.91-.22,1.82-.05,2.74.11.58.31,1.14.62,1.65.59,1,1.46,1.66,2.54,2.04.71.25,1.44.36,2.17.34.76,0,1.49-.09,2.19-.35,1.63-.6,2.66-1.74,3.08-3.42.25-1.03.25-2.07-.02-3.1ZM125.82,42.42c-.43,1.09-1.24,1.72-2.38,1.92-.5.09-1.01.07-1.51-.06-1.11-.29-1.85-.98-2.19-2.08-.24-.77-.23-1.55.07-2.3.42-1.08,1.22-1.73,2.35-1.96.65-.13,1.29-.08,1.9.16.9.35,1.5.99,1.81,1.9.14.41.17.65.17,1.2.02.38-.05.81-.22,1.23Z"/>
  <path class="cls-5" d="M131.41,61.17c-.04-.07-.09-.14-.14-.2-.32-.39-.65-.78-.97-1.17-.46-.56-.93-1.12-1.39-1.68-.06-.07-.12-.15-.17-.23,0-.01,0-.06.02-.07.08-.05.17-.09.26-.12.3-.13.59-.29.86-.49.46-.35.79-.8.96-1.35.19-.64.21-1.3.08-1.95-.02-.11-.05-.21-.08-.32-.34-1-1.01-1.68-1.99-2.05-.49-.19-1-.27-1.53-.27-1.51,0-3.02,0-4.53,0-.07,0-.14,0-.2.02-.03,0-.07.05-.08.08-.01.12-.01.25-.01.37,0,1.52,0,3.05,0,4.57,0,1.52,0,3.05,0,4.57,0,.12,0,.25,0,.37,0,.05.05.1.11.1.03,0,.05,0,.08,0,.62,0,1.23,0,1.85,0,.04,0,.08,0,.12-.01.02,0,.05-.04.05-.06,0-.1.01-.19.01-.29,0-.82,0-1.65,0-2.47,0-.11,0-.22,0-.33,0-.09.06-.14.16-.15.01,0,.03,0,.04,0,.43,0,.85,0,1.28,0,.09,0,.16.03.22.1.07.08.14.17.2.26.67.87,1.35,1.73,2.02,2.6.08.1.15.2.23.29.02.03.07.05.11.05.05.01.11.01.16.01.69,0,1.37,0,2.06,0,.04,0,.08,0,.12,0,.06,0,.11-.11.08-.16ZM127.49,56.11c-.08.01-.16,0-.25,0-.75,0-1.51,0-2.26,0-.05,0-.11,0-.16-.01-.05,0-.07-.04-.08-.08-.01-.07-.01-.14-.01-.2,0-.4,0-.79,0-1.19h0c0-.33,0-.66,0-.99,0-.1,0-.19,0-.29,0-.12.05-.16.18-.17.04,0,.08,0,.12,0,.7,0,1.4,0,2.1,0,.16,0,.33.02.49.05.32.06.59.22.79.48.31.4.43.86.31,1.36-.13.53-.52.96-1.23,1.04Z"/>
  <path class="cls-5" d="M150.89,46.02c-.04-.07-.08-.14-.14-.2-.78-.94-1.56-1.88-2.33-2.82-.06-.07-.12-.15-.18-.22-.04-.05-.03-.12.02-.14.09-.04.18-.07.27-.11.29-.13.57-.28.82-.47.5-.37.84-.86,1-1.47.14-.51.18-1.03.1-1.55-.2-1.32-.93-2.22-2.19-2.69-.48-.18-.98-.24-1.49-.24-1.48,0-2.96,0-4.45,0-.08,0-.16,0-.25,0-.05,0-.1.05-.1.11,0,.14,0,.27,0,.41,0,1.5,0,2.99,0,4.49s0,3.02,0,4.53c0,.14,0,.27,0,.41,0,.06.05.11.1.11.03,0,.05,0,.08,0,.62,0,1.23,0,1.85,0,.04,0,.08,0,.12-.01.05,0,.07-.04.08-.08.01-.08.01-.16.01-.25,0-.82,0-1.65,0-2.47,0-.12,0-.25,0-.37,0-.06.05-.11.1-.11.04,0,.08,0,.12,0,.34,0,.69,0,1.03,0,.4,0,.33-.04.58.28.7.9,1.4,1.8,2.1,2.69.07.09.14.17.21.26.04.05.09.06.14.07.07,0,.14,0,.21,0,.63,0,1.26,0,1.89,0,.07,0,.14,0,.21,0,.06,0,.12-.1.09-.15ZM146.97,40.96c-.07,0-.14,0-.21,0-.77,0-1.53,0-2.3,0-.05,0-.11,0-.16-.01-.04,0-.07-.04-.07-.09,0-.08-.01-.16-.01-.25,0-.38,0-.77,0-1.15,0-.36,0-.71,0-1.07,0-.08,0-.16,0-.25,0-.05.05-.11.1-.11.07,0,.14,0,.2,0,.71,0,1.42,0,2.14,0,.17,0,.33.01.49.05.29.07.53.22.72.44.21.25.33.54.37.86.09.69-.34,1.46-1.27,1.57Z"/>
  <path class="cls-1" d="M84.5,42.46c-.48,0-.96,0-1.44,0-.07,0-.14,0-.2-.02-.02,0-.04-.04-.04-.06.03-.09.05-.18.09-.27.36-.86.73-1.71,1.09-2.57.12-.29.24-.58.37-.87.03-.06.06-.12.1-.18,0,0,.02-.01.03-.01.01,0,.03.01.03.02.03.05.06.09.08.14.5,1.18,1,2.37,1.5,3.55.02.05.04.1.05.15,0,.03-.03.09-.06.09-.1,0-.19,0-.29.01-.44,0-.88,0-1.31,0Z"/>
  <path class="cls-5" d="M176.31,45.99c-.03-.08-.07-.15-.1-.22-1.32-2.95-2.65-5.9-3.97-8.86-.1-.21-.19-.42-.29-.64-.05-.11-.12-.17-.25-.17-.7,0-1.4,0-2.1,0-.03,0-.05,0-.08,0-.06,0-.11.03-.13.08-.04.08-.09.17-.13.26-.68,1.51-1.36,3.03-2.04,4.54-.72,1.61-1.45,3.23-2.17,4.84-.04.09-.1.17-.09.27,0,.02.02.05.04.06.02.01.05.02.08.02.7,0,1.4,0,2.1,0,.03,0,.06,0,.08-.01.03-.02.07-.04.09-.07.03-.04.05-.1.07-.15.17-.4.34-.81.51-1.21.03-.06.05-.13.09-.19.03-.05.07-.08.13-.09.1,0,.19,0,.29,0,1.47,0,2.94,0,4.4,0,.08,0,.16,0,.25,0,.08,0,.13.04.16.11.12.26.23.53.34.79.1.23.19.45.29.68.04.1.12.14.22.14.34,0,.69,0,1.03,0h0c.26,0,.52,0,.78,0,.1,0,.19,0,.29,0,.11,0,.17-.02.1-.19ZM172.24,42.46c-.07,0-.14,0-.21,0-.47,0-.93,0-1.4,0h0c-.53,0-1.07,0-1.6,0-.04,0-.08-.05-.07-.08,0-.03.01-.05.02-.08.03-.08.06-.15.09-.23.47-1.11.94-2.21,1.41-3.32.03-.07.07-.15.11-.22,0-.01.06-.01.07,0,.05.08.09.17.13.25.43,1.01.85,2.01,1.28,3.02.07.18.15.35.22.53.02.06-.01.12-.07.12Z"/>
  <path class="cls-5" d="M115.38,38.79c-.15-.64-.44-1.2-.92-1.67-.4-.39-.88-.65-1.41-.82-.46-.14-.94-.2-1.42-.2-1.47,0-2.93,0-4.4,0-.39,0-.37-.01-.37.39,0,1.55,0,3.1,0,4.65,0,1.52,0,3.04,0,4.57,0,.12,0,.25.01.37,0,.04.03.08.08.08.08,0,.16.02.24.02.52,0,1.04,0,1.56,0,.39,0,.38.02.38-.38,0-.71,0-1.43,0-2.14,0-.08,0-.16.02-.24,0-.02.03-.05.06-.05.08-.01.16-.02.25-.02.62,0,1.23,0,1.85,0,.33,0,.66-.01.98-.05.48-.06.94-.18,1.37-.4.84-.42,1.39-1.09,1.66-1.99.21-.7.22-1.41.06-2.11ZM113.12,40.36c-.2.49-.57.76-1.07.86-.16.03-.33.04-.49.05-.74,0-1.48,0-2.22,0-.04,0-.09,0-.12-.01-.03-.02-.07-.05-.07-.08-.01-.07-.01-.14-.01-.2,0-.41,0-.82,0-1.23h0c0-.4,0-.79,0-1.19,0-.07,0-.14.01-.2,0-.03.05-.07.08-.08.05-.02.11-.01.16-.01.75,0,1.51,0,2.26,0,.25,0,.49.04.72.14.34.15.59.39.74.74.17.41.18.82.02,1.24Z"/>
</svg>