<?xml version="1.0" encoding="UTF-8"?>
<!DOCTYPE svg PUBLIC "-//W3C//DTD SVG 1.1//EN" "http://www.w3.org/Graphics/SVG/1.1/DTD/svg11.dtd">
<!-- Creator: CorelDRAW X5 -->
<svg xmlns="http://www.w3.org/2000/svg" xml:space="preserve" width="104.567mm" height="130mm" style="shape-rendering:geometricPrecision; text-rendering:geometricPrecision; image-rendering:optimizeQuality; fill-rule:evenodd; clip-rule:evenodd"
viewBox="0 0 10457 13000"
 xmlns:xlink="http://www.w3.org/1999/xlink">
 <defs>
  <style type="text/css">
   <![CDATA[
    .fil0 {fill:#0C5D3D}
    .fil1 {fill:#CC9A32}
   ]]>
  </style>
 </defs>
 <g id="Layer_x0020_1">
  <metadata id="CorelCorpID_0Corel-Layer"/>
  <path class="fil0" d="M7835 8441l2621 0 0 2621c0,1066 -872,1938 -1938,1938l-874 0 0 -836 748 0c675,0 1227,-552 1227,-1227l0 -1660 -1660 0c-675,0 -1227,552 -1227,1227l0 2496 -836 0 0 -2621c0,-1066 872,-1938 1938,-1938z"/>
  <polygon class="fil0" points="4772,9709 5684,9709 5684,13000 4772,13000 "/>
  <path class="fil0" d="M0 8441l836 0 0 2500c0,673 551,1223 1223,1223l1664 0 0 -1664c0,-673 -551,-1223 -1223,-1223l-752 0 0 -836 880 0c1062,0 1932,869 1932,1932l0 2627 -2627 0c-1062,0 -1932,-869 -1932,-1932l0 -2627z"/>
  <polygon class="fil1" points="3346,6391 2172,5218 2383,5008 2607,5008 3668,6069 "/>
  <polygon class="fil1" points="5879,7623 5228,8274 3776,6821 4098,6499 5228,7629 5557,7300 "/>
  <polygon class="fil1" points="7483,6019 6309,7193 6099,6983 6099,6758 7160,5697 "/>
  <polygon class="fil1" points="8714,3486 9365,4137 7913,5590 7590,5267 8721,4137 8392,3808 "/>
  <polygon class="fil1" points="7111,1883 8284,3056 8074,3266 7850,3266 6789,2205 "/>
  <polygon class="fil1" points="4577,651 5228,0 6681,1453 6359,1775 5228,645 4900,973 "/>
  <polygon class="fil1" points="2974,2254 4147,1081 4358,1291 4358,1516 3296,2577 "/>
  <polygon class="fil1" points="6023,6302 6023,7014 6299,7290 8381,7290 8382,5228 8714,4895 8837,5019 8837,7746 6110,7746 5567,7203 5567,6302 "/>
  <polygon class="fil1" points="4803,4191 6023,5411 6023,5694 5567,5695 5567,5600 4480,4513 "/>
  <polygon class="fil1" points="2638,3342 3954,3342 4373,3761 4051,4083 3765,3798 2182,3798 "/>
  <polygon class="fil1" points="4434,1971 4434,1260 4158,984 2075,984 2075,3046 1743,3378 1619,3255 1619,528 4347,528 4889,1071 4889,1971 "/>
  <polygon class="fil1" points="5654,4083 4434,2863 4434,2579 4889,2579 4889,2674 5976,3761 "/>
  <polygon class="fil1" points="6502,4932 6084,4513 6406,4191 6691,4476 8274,4476 7818,4932 "/>
  <polygon class="fil1" points="3063,4932 2351,4932 2075,5208 2075,7290 4137,7290 4470,7623 4347,7746 1619,7746 1619,5019 2162,4476 3063,4476 "/>
  <polygon class="fil1" points="5175,3711 3954,4932 3671,4932 3671,4476 3765,4476 4852,3389 "/>
  <polygon class="fil1" points="6023,1547 6023,2863 5604,3282 5282,2959 5567,2674 5567,1091 "/>
  <polygon class="fil1" points="7394,3342 8106,3342 8382,3066 8382,984 6320,984 5987,651 6110,528 8837,528 8837,3255 8294,3798 7394,3798 "/>
  <polygon class="fil1" points="5282,4562 6502,3342 6786,3342 6786,3798 6691,3798 5604,4885 "/>
  <polygon class="fil1" points="4434,5411 4852,4992 5175,5315 4889,5600 4889,7183 4434,6727 "/>
  <polygon class="fil1" points="7483,3007 7318,3171 7318,4400 6862,4400 6862,2983 7160,2684 "/>
  <polygon class="fil1" points="6099,2047 6194,2047 6954,1288 8078,1288 8078,2412 7913,2577 7590,2254 7622,2223 7622,1744 7142,1744 6383,2503 6099,2503 "/>
  <polygon class="fil1" points="4098,1883 4263,2047 5491,2047 5491,2503 4074,2503 3776,2205 "/>
  <polygon class="fil1" points="3139,3266 3139,3171 2379,2412 2379,1288 3503,1288 3668,1453 3346,1775 3314,1744 2835,1744 2835,2223 3595,2983 3595,3266 "/>
  <polygon class="fil1" points="2974,5267 3139,5102 3139,3874 3595,3874 3595,5291 3296,5590 "/>
  <polygon class="fil1" points="4358,6226 4263,6226 3503,6986 2379,6986 2379,5862 2544,5697 2867,6019 2835,6051 2835,6530 3314,6530 4074,5770 4358,5770 "/>
  <polygon class="fil1" points="6359,6391 6194,6226 4966,6226 4965,5770 6383,5770 6681,6069 "/>
  <polygon class="fil1" points="6954,6986 6789,6821 7111,6499 7142,6530 7622,6530 7622,6051 6862,5291 6862,5008 7318,5008 7318,5102 8078,5862 8078,6986 "/>
  <polygon class="fil1" points="4584,8920 5228,8275 5873,8920 5228,9564 "/>
  <polygon class="fil1" points="1091,4137 2544,2684 2867,3007 1736,4137 2065,4466 1743,4788 "/>
 </g>
</svg>
